<svg width="300" height="300" viewBox="0 0 300 300" fill="none" xmlns="http://www.w3.org/2000/svg">
<path fill-rule="evenodd" clip-rule="evenodd" d="M126.342 210.194C116.646 207.543 107.379 203.48 98.8551 198.154L67.1015 266.249C63.6005 273.758 66.8488 282.682 74.3569 286.183C81.865 289.684 90.7897 286.436 94.2908 278.928L126.342 210.194Z" fill="white"/>
<path d="M147.542 110.676C126.461 126.437 80.1269 136.455 59.5947 139.494C58.1126 135.422 54.8914 124.817 53.8633 114.976C52.9959 106.672 60.2598 76.9975 60.2598 76.9975C60.2598 76.9975 73.5433 71.0986 83.4101 67.5073C90.4578 64.9421 84.9509 77.5883 99.5161 72.287C112.206 67.1453 138.684 58.5629 164.345 13.5734C176.878 9.86432 205.314 27.9125 210.571 32.3984C192.437 77.1135 174.082 90.8354 147.945 110.375L147.542 110.676Z" fill="#EED88B"/>
<path d="M100.364 51.2268C83.7911 55.9819 83.3237 64.3462 85.1616 67.934L89.905 73.6567L97.0391 74.2527C97.9644 73.3838 104.317 69.6883 122.324 61.8571C140.332 54.0258 157.3 25.8925 163.533 12.8048L139.868 15.0331C133.605 25.1163 116.937 46.4717 100.364 51.2268Z" fill="#4D94D5"/>
<path fill-rule="evenodd" clip-rule="evenodd" d="M141.32 116.274C110.076 133.553 76.5919 141.013 55.2076 142.587L54.8405 137.6C75.6036 136.072 108.37 128.783 138.901 111.898C169.405 95.0286 197.493 68.6914 209.372 29.1163L214.161 30.5537C201.799 71.7396 172.59 98.9804 141.32 116.274Z" fill="white"/>
<path fill-rule="evenodd" clip-rule="evenodd" d="M118.91 35.7645C117.064 30.8229 112.825 23.9684 104.85 20.5233L102.867 25.1134C110.096 28.2358 113.583 35.0277 114.697 38.9201C114.442 39.1034 114.188 39.2856 113.933 39.4668C103.314 47.0199 92.9886 52.315 89.5146 53.5794C85.5925 55.007 83.6257 57.9807 82.8119 60.9282C82.2966 62.7946 82.2249 64.6852 82.3675 66.2905L56.5857 75.6743L58.2958 80.3728L84.0375 71.0036C84.8088 72.1231 85.8535 73.2972 87.1735 74.2914C89.4188 75.9824 92.5078 77.1767 96.3061 76.5962C98.5479 76.2535 102.527 74.9465 107.49 72.6251C112.513 70.2756 118.697 66.8157 125.369 62.0484C138.714 52.5125 154.053 37.7142 165.939 16.058L161.555 13.6524C150.086 34.55 135.297 48.8087 122.462 57.9803C116.043 62.5667 110.124 65.8732 105.371 68.096C100.559 70.347 97.0892 71.4184 95.5506 71.6536C93.3004 71.9975 91.5403 71.3207 90.1816 70.2974C88.8606 69.3026 87.9648 68.0042 87.5384 67.1197C87.2661 65.8808 87.1524 63.9944 87.6315 62.2589C88.1107 60.5234 89.1328 59.0393 91.2247 58.2779C95.2683 56.8062 106 51.2448 116.831 43.5413C127.609 35.8758 139.02 25.7207 143.858 14.8996L139.294 12.8587C135.706 20.8829 127.724 28.8973 118.91 35.7645Z" fill="white"/>
<path d="M112.72 86.6362C101.889 93.1326 68.6825 101.6 53.4332 105.022L56.3006 123.134C63.3915 122.149 82.8528 118.897 103.971 113.765C125.089 108.632 153.316 86.5815 164.79 76.1977C172.42 67.9224 187.85 49.5008 188.531 42.0164C189.213 34.532 184.086 31.7512 181.437 31.2963C178.817 29.9444 171.561 31.06 163.5 46.3383C153.424 65.4362 126.259 78.5159 112.72 86.6362Z" fill="#4D94D5"/>
<path fill-rule="evenodd" clip-rule="evenodd" d="M180.252 28.6475C181.352 28.7854 182.501 29.0885 183.691 29.5907C186.26 30.6748 188.137 32.1752 189.399 33.9807C190.657 35.7807 191.202 37.7393 191.339 39.5897C191.605 43.2005 190.331 46.5815 189.517 48.3276C187.799 52.0121 151.006 118.712 53.0351 126.354L52.6463 121.369C148.183 113.917 183.715 48.9386 184.986 46.2145C185.665 44.7564 186.526 42.3058 186.352 39.9576C186.269 38.8285 185.951 37.7758 185.301 36.845C184.654 35.9199 183.578 34.9702 181.747 34.1973C179.074 33.0695 176.992 33.5771 175.347 34.6321C173.581 35.7644 172.299 37.5678 171.701 38.8495L171.647 38.966L171.581 39.0763C157.079 63.3199 134.029 79.6673 111.29 90.2595C88.5482 100.853 65.9079 105.789 51.9122 107.085L51.4511 102.106C64.9079 100.86 86.9862 96.0645 109.179 85.7271C131.341 75.4039 153.409 59.6529 167.228 36.6129C168.144 34.7025 169.963 32.1449 172.647 30.4233C173.301 30.0039 174.005 29.6364 174.753 29.3411L179.146 16.1126L183.891 17.6881L180.252 28.6475Z" fill="white"/>
<path fill-rule="evenodd" clip-rule="evenodd" d="M89.7427 153.485L62.6609 158.021L61.8349 153.089L88.8876 148.558C91.1615 148.124 94.8565 147.837 98.2008 149.343C99.9315 150.122 101.55 151.375 102.77 153.272C103.98 155.155 104.714 157.54 104.899 160.469C105.102 163.681 104.241 166.449 102.351 168.554C100.503 170.612 97.8967 171.784 95.0468 172.314C92.7168 172.747 88.8546 173.588 84.8926 174.45L84.8161 174.467C80.865 175.326 76.8256 176.205 74.2872 176.677L73.3727 171.762C75.8178 171.307 79.7661 170.449 83.7529 169.581L83.9168 169.545C87.8122 168.698 91.7269 167.846 94.1323 167.398C96.2659 167.001 97.7345 166.211 98.6312 165.213C99.4863 164.261 100.041 162.878 99.9092 160.784C99.7658 158.512 99.2194 156.996 98.5642 155.977C97.9183 154.972 97.0863 154.324 96.1483 153.902C94.1706 153.012 91.675 153.113 89.8029 153.474L89.7728 153.48L89.7427 153.485Z" fill="white"/>
<path d="M164.932 121.906C162.565 123.171 147.648 131.921 140.159 135.711C137.298 137.107 132.318 141.651 135.293 148.656C138.269 155.661 146.302 154.049 149.947 152.368L175.061 139.503C177.766 138.163 182.966 133.444 180.226 125.917C177.148 117.46 168.05 120.239 164.932 121.906Z" fill="#4D94D5"/>
<path d="M140.159 135.711L141.256 137.958L141.272 137.95L141.288 137.942L140.159 135.711ZM164.932 121.906L163.753 119.701L163.753 119.701L164.932 121.906ZM175.061 139.503L173.952 137.262L173.937 137.27L173.921 137.278L175.061 139.503ZM149.947 152.368L150.994 154.638L151.041 154.617L151.087 154.593L149.947 152.368ZM135.293 148.656L137.595 147.679L137.595 147.679L135.293 148.656ZM141.288 137.942C148.722 134.18 164.016 125.23 166.11 124.111L163.753 119.701C161.115 121.112 146.574 129.663 139.031 133.48L141.288 137.942ZM166.11 124.111C167.415 123.413 170.013 122.488 172.468 122.612C173.653 122.671 174.705 122.97 175.575 123.559C176.424 124.133 177.266 125.094 177.877 126.772L182.575 125.062C181.647 122.511 180.197 120.648 178.377 119.417C176.578 118.2 174.583 117.712 172.72 117.618C169.077 117.434 165.567 118.732 163.753 119.701L166.11 124.111ZM177.877 126.772C178.982 129.808 178.466 132.109 177.51 133.798C176.495 135.59 174.924 136.781 173.952 137.262L176.17 141.743C177.904 140.885 180.284 139.047 181.861 136.262C183.496 133.374 184.21 129.552 182.575 125.062L177.877 126.772ZM173.921 137.278L148.807 150.143L151.087 154.593L176.201 141.728L173.921 137.278ZM148.9 150.098C147.346 150.815 144.874 151.491 142.6 151.28C140.482 151.084 138.651 150.166 137.595 147.679L132.992 149.633C134.911 154.15 138.585 155.93 142.139 156.259C145.536 156.573 148.903 155.603 150.994 154.638L148.9 150.098ZM137.595 147.679C136.424 144.922 136.849 142.848 137.716 141.307C138.651 139.647 140.185 138.48 141.256 137.958L139.063 133.464C137.272 134.338 134.886 136.141 133.359 138.854C131.765 141.685 131.188 145.385 132.992 149.633L137.595 147.679Z" fill="white"/>
<path d="M191.33 115.49L186.842 107.546L189.531 101.778L203.496 86.0542L214.126 64.094L223.176 42.1771L235.911 62.5498L216.827 99.2928L201.796 116.47L191.33 115.49Z" fill="#4D94D5"/>
<path fill-rule="evenodd" clip-rule="evenodd" d="M209.304 68.4355C214.222 57.9153 217.59 47.7177 219.175 41.594L224.015 42.8466C222.357 49.2544 218.887 59.7427 213.833 70.5531C208.795 81.3307 202.084 92.6406 193.865 100.508L193.792 100.578L193.713 100.642C192.176 101.891 190.369 104.047 189.715 106.365C189.402 107.477 189.365 108.579 189.692 109.66C190.019 110.738 190.763 111.978 192.304 113.284C193.789 114.541 195.152 115.024 196.359 115.113C197.593 115.204 198.862 114.896 200.14 114.257C202.762 112.945 205.045 110.421 206.313 108.451L206.377 108.352L206.45 108.259C213.367 99.4592 227.754 76.4174 233.511 60.1358L238.225 61.8026C232.256 78.6859 217.623 102.104 210.452 111.258C208.873 113.679 206.013 116.909 202.377 118.728C200.5 119.667 198.33 120.272 195.991 120.099C193.625 119.925 191.28 118.968 189.073 117.099C186.923 115.279 185.557 113.256 184.907 111.109C184.257 108.964 184.377 106.876 184.903 105.008C185.915 101.418 188.467 98.4855 190.477 96.8296C198.012 89.5886 204.385 78.9563 209.304 68.4355Z" fill="white"/>
<path fill-rule="evenodd" clip-rule="evenodd" d="M144.532 185.732C129.603 191.166 107.745 194.81 98.7137 195.958L98.0833 190.998C107.021 189.862 128.431 186.272 142.821 181.034L142.907 181.003L142.993 180.972L143.078 180.94L143.163 180.909L143.248 180.879L143.333 180.848L143.417 180.817L143.502 180.786L143.586 180.756L143.67 180.725L143.753 180.695L143.837 180.664L143.92 180.634L144.003 180.604L144.086 180.574L144.168 180.544L144.251 180.514L144.333 180.484L144.415 180.454L144.496 180.424L144.578 180.395L144.659 180.365L144.74 180.335L144.821 180.306L144.902 180.277L144.982 180.247L145.063 180.218L145.143 180.189L145.223 180.16L145.302 180.131L145.382 180.102L145.461 180.073L145.54 180.045L145.619 180.016L145.697 179.987L145.775 179.959L145.854 179.93L145.932 179.902L146.009 179.874L146.087 179.845L146.164 179.817L146.241 179.789L146.318 179.761L146.395 179.733L146.472 179.705L146.548 179.678L146.624 179.65L146.7 179.622L146.776 179.595L146.851 179.567L146.926 179.54L147.001 179.513L147.076 179.485L147.151 179.458L147.225 179.431L147.3 179.404L147.374 179.377L147.448 179.35L147.521 179.323L147.595 179.297L147.668 179.27L147.741 179.243L147.814 179.217L147.886 179.19L147.959 179.164L148.031 179.138L148.103 179.112L148.175 179.085L148.247 179.059L148.318 179.033L148.389 179.007L148.46 178.982L148.531 178.956L148.602 178.93L148.672 178.904L148.742 178.879L148.812 178.853L148.882 178.828L148.952 178.803L149.021 178.777L149.091 178.752L149.16 178.727L149.229 178.702L149.297 178.677L149.366 178.652L149.434 178.627L149.502 178.602L149.57 178.578L149.637 178.553L149.705 178.529L149.772 178.504L149.839 178.48L149.906 178.455L149.973 178.431L150.039 178.407L150.106 178.383L150.172 178.359L150.238 178.335L150.303 178.311L150.369 178.287L150.434 178.263L150.499 178.239L150.564 178.216L150.629 178.192L150.694 178.169L150.758 178.145L150.822 178.122L150.886 178.099L150.95 178.075L151.014 178.052L151.077 178.029L151.14 178.006L151.203 177.983L151.266 177.96L151.329 177.938L151.391 177.915L151.453 177.892L151.515 177.87L151.577 177.847L151.639 177.825L151.701 177.802L151.762 177.78L151.823 177.758L151.884 177.735L151.945 177.713L152.005 177.691L152.066 177.669L152.126 177.647L152.186 177.626L152.246 177.604L152.305 177.582L152.365 177.56L152.424 177.539L152.483 177.517L152.542 177.496L152.601 177.475L152.659 177.453L152.717 177.432L152.776 177.411L152.834 177.39L152.891 177.369L152.949 177.348L153.006 177.327L153.064 177.306L153.121 177.285L153.177 177.265L153.234 177.244L153.291 177.223L153.347 177.203L153.403 177.183L153.459 177.162L153.515 177.142L153.57 177.122L153.626 177.101L153.681 177.081L153.736 177.061L153.791 177.041L153.845 177.021L153.9 177.002L153.954 176.982L154.008 176.962L154.062 176.943L154.116 176.923L154.17 176.903L154.223 176.884L154.276 176.865L154.329 176.845L154.382 176.826L154.435 176.807L154.487 176.788L154.54 176.769L154.592 176.75L154.644 176.731L154.696 176.712L154.747 176.693L154.799 176.675L154.85 176.656L154.901 176.637L154.952 176.619L155.003 176.6L155.053 176.582L155.104 176.563L155.154 176.545L155.204 176.527L155.254 176.509L155.304 176.491L155.353 176.473L155.402 176.455L155.452 176.437L155.501 176.419L155.549 176.401L155.598 176.384L155.647 176.366L155.695 176.348L155.743 176.331L155.791 176.313L155.839 176.296L155.886 176.279L155.934 176.261L155.981 176.244L156.028 176.227L156.075 176.21L156.122 176.193L156.169 176.176L156.215 176.159L156.261 176.142L156.307 176.125L156.353 176.109L156.399 176.092L156.444 176.076L156.49 176.059L156.535 176.043L156.58 176.026L156.625 176.01L156.67 175.994L156.714 175.977L156.759 175.961L156.803 175.945L156.847 175.929L156.891 175.913L156.935 175.897L156.978 175.881L157.022 175.865L157.065 175.85L157.108 175.834L157.151 175.818L157.193 175.803L157.236 175.787L157.278 175.772L157.321 175.757L157.363 175.741L157.405 175.726L157.446 175.711L157.488 175.696L157.529 175.681L157.571 175.666L157.612 175.651L157.653 175.636L157.693 175.621L157.734 175.606L157.774 175.591L157.815 175.577L157.855 175.562L157.895 175.548L157.935 175.533L157.974 175.519L158.014 175.504L158.053 175.49L158.092 175.476L158.131 175.462L158.17 175.448L158.209 175.433L158.247 175.419L158.285 175.405L158.324 175.392L158.362 175.378L158.399 175.364L158.437 175.35L158.475 175.337L158.512 175.323L158.549 175.309L158.586 175.296L158.623 175.282L158.66 175.269L158.697 175.256L158.733 175.243L158.769 175.229L158.806 175.216L158.842 175.203L158.877 175.19L158.913 175.177L158.949 175.164L158.984 175.151L159.019 175.138L159.054 175.126L159.089 175.113L159.124 175.1L159.158 175.088L159.193 175.075L159.227 175.063L159.261 175.05L159.295 175.038L159.329 175.026L159.363 175.013L159.396 175.001L159.429 174.989L159.463 174.977L159.496 174.965L159.529 174.953L159.561 174.941L159.594 174.929L159.626 174.917L159.659 174.906L159.691 174.894L159.723 174.882L159.755 174.871L159.786 174.859L159.818 174.848L159.849 174.836L159.881 174.825L159.912 174.814L159.943 174.802L159.973 174.791L160.004 174.78L160.035 174.769L160.065 174.758L160.095 174.747L160.125 174.736L160.155 174.725L160.185 174.714L160.215 174.703L160.244 174.693L160.273 174.682L160.303 174.671L160.332 174.661L160.36 174.65L160.389 174.64L160.418 174.629L160.446 174.619L160.475 174.609L160.503 174.598L160.531 174.588L160.559 174.578L160.586 174.568L160.614 174.558L160.641 174.548L160.669 174.538L160.696 174.528L160.723 174.518L160.75 174.509L160.777 174.499L160.803 174.489L160.83 174.479L160.856 174.47L160.882 174.46L160.908 174.451L160.934 174.441L160.96 174.432L160.985 174.423L161.011 174.414L161.036 174.404L161.061 174.395L161.086 174.386L161.111 174.377L161.136 174.368L161.161 174.359L161.185 174.35L161.209 174.341L161.234 174.332L161.258 174.324L161.282 174.315L161.305 174.306L161.329 174.298L161.353 174.289L161.376 174.281L161.399 174.272L161.422 174.264L161.445 174.255L161.468 174.247L161.491 174.239L161.513 174.231L161.536 174.222L161.558 174.214L161.58 174.206L161.602 174.198L161.624 174.19L161.646 174.182L161.668 174.174L161.689 174.167L161.71 174.159L161.732 174.151L161.753 174.143L161.774 174.136L161.795 174.128L161.815 174.121L161.836 174.113L161.856 174.106L161.877 174.098L161.897 174.091L161.917 174.084L161.937 174.077L161.956 174.069L161.976 174.062L161.996 174.055L162.015 174.048L162.034 174.041L162.053 174.034L162.072 174.027L162.091 174.02L162.11 174.013L162.128 174.007L162.147 174L162.165 173.993L162.184 173.987L162.202 173.98L162.22 173.974L162.237 173.967L162.255 173.961L162.273 173.954L162.29 173.948L162.307 173.942L162.325 173.935L162.342 173.929L162.359 173.923L162.375 173.917L162.392 173.911L162.409 173.905L162.425 173.899L162.441 173.893L162.458 173.887L162.474 173.881L162.49 173.875L162.506 173.869L162.521 173.864L162.537 173.858L162.552 173.852L162.568 173.847L162.583 173.841L162.598 173.836L162.613 173.83L162.628 173.825L162.642 173.82L162.657 173.814L162.671 173.809L162.686 173.804L162.7 173.799L162.714 173.794L162.728 173.788L162.742 173.783L162.756 173.778L162.769 173.773L162.783 173.769L162.796 173.764L162.809 173.759L162.823 173.754L162.836 173.749L162.849 173.745L162.861 173.74L162.874 173.735L162.887 173.731L162.899 173.726L162.911 173.722L162.924 173.717L162.936 173.713L162.948 173.709L162.959 173.704L162.971 173.7L162.983 173.696L162.994 173.692L163.006 173.687L163.017 173.683L163.028 173.679L163.039 173.675L163.05 173.671L163.061 173.667L163.072 173.663L163.082 173.66L163.093 173.656L163.103 173.652L163.113 173.648L163.123 173.645L163.133 173.641L163.143 173.637L163.153 173.634L163.163 173.63L163.172 173.627L163.182 173.623L163.191 173.62L163.2 173.617L163.209 173.613L163.218 173.61L163.227 173.607L163.236 173.604L163.245 173.6L163.253 173.597L163.262 173.594L163.27 173.591L163.278 173.588L163.286 173.585L163.294 173.582L163.302 173.579L163.31 173.577L163.318 173.574L163.325 173.571L163.333 173.568L163.34 173.566L163.348 173.563L163.355 173.56L163.362 173.558L163.369 173.555L163.376 173.553L163.382 173.55L163.389 173.548L163.395 173.546L163.402 173.543L163.408 173.541L163.414 173.539L163.42 173.537L163.426 173.534L163.432 173.532L163.438 173.53L163.444 173.528L163.449 173.526L163.455 173.524L163.46 173.522L163.465 173.52L163.47 173.518L163.475 173.516L163.48 173.515L163.485 173.513L163.49 173.511L163.495 173.509C165.413 172.811 168.449 172.305 171.493 173.085C174.693 173.905 177.748 176.122 179.345 180.511C180.939 184.89 180.054 188.598 178.215 191.354C176.452 193.994 173.876 195.691 171.99 196.486L171.933 196.511L171.874 196.532L151.201 204.056L151.17 204.068L151.139 204.078C150.087 204.43 148.938 204.828 147.712 205.254C142.128 207.191 134.954 209.679 128.158 210.802L127.343 205.869C133.671 204.823 140.325 202.518 145.911 200.584C147.175 200.146 148.384 199.728 149.522 199.347L170.101 191.857C171.288 191.344 172.965 190.212 174.056 188.578C175.086 187.035 175.652 184.983 174.647 182.221C173.645 179.467 171.942 178.361 170.252 177.928C168.406 177.455 166.418 177.766 165.205 178.208L165.2 178.21L165.195 178.211L165.191 178.213L165.186 178.215L165.181 178.217L165.175 178.219L165.17 178.221L165.165 178.222L165.159 178.224L165.154 178.226L165.148 178.229L165.142 178.231L165.136 178.233L165.13 178.235L165.124 178.237L165.118 178.239L165.112 178.242L165.105 178.244L165.099 178.246L165.092 178.249L165.086 178.251L165.079 178.254L165.072 178.256L165.065 178.259L165.058 178.261L165.05 178.264L165.043 178.267L165.036 178.27L165.028 178.272L165.02 178.275L165.012 178.278L165.005 178.281L164.997 178.284L164.988 178.287L164.98 178.29L164.972 178.293L164.963 178.296L164.955 178.299L164.946 178.302L164.937 178.305L164.929 178.308L164.92 178.312L164.91 178.315L164.901 178.318L164.892 178.322L164.882 178.325L164.873 178.329L164.863 178.332L164.853 178.336L164.843 178.339L164.833 178.343L164.823 178.347L164.813 178.35L164.803 178.354L164.792 178.358L164.782 178.362L164.771 178.366L164.76 178.37L164.749 178.374L164.738 178.378L164.727 178.382L164.716 178.386L164.704 178.39L164.693 178.394L164.681 178.398L164.67 178.403L164.658 178.407L164.646 178.411L164.634 178.416L164.621 178.42L164.609 178.425L164.597 178.429L164.584 178.434L164.571 178.438L164.559 178.443L164.546 178.448L164.533 178.453L164.52 178.457L164.506 178.462L164.493 178.467L164.479 178.472L164.466 178.477L164.452 178.482L164.438 178.487L164.424 178.492L164.41 178.497L164.396 178.502L164.382 178.508L164.367 178.513L164.352 178.518L164.338 178.523L164.323 178.529L164.308 178.534L164.293 178.54L164.278 178.545L164.262 178.551L164.247 178.557L164.231 178.562L164.216 178.568L164.2 178.574L164.184 178.58L164.168 178.585L164.152 178.591L164.135 178.597L164.119 178.603L164.102 178.609L164.086 178.615L164.069 178.621L164.052 178.628L164.035 178.634L164.018 178.64L164 178.646L163.983 178.653L163.965 178.659L163.947 178.666L163.93 178.672L163.912 178.679L163.894 178.685L163.875 178.692L163.857 178.698L163.839 178.705L163.82 178.712L163.801 178.719L163.782 178.726L163.763 178.733L163.744 178.739L163.725 178.747L163.706 178.754L163.686 178.761L163.667 178.768L163.647 178.775L163.627 178.782L163.607 178.79L163.587 178.797L163.566 178.804L163.546 178.812L163.525 178.819L163.505 178.827L163.484 178.834L163.463 178.842L163.442 178.85L163.421 178.857L163.399 178.865L163.378 178.873L163.356 178.881L163.334 178.889L163.312 178.897L163.29 178.905L163.268 178.913L163.246 178.921L163.224 178.929L163.201 178.937L163.178 178.946L163.155 178.954L163.132 178.962L163.109 178.971L163.086 178.979L163.063 178.988L163.039 178.996L163.016 179.005L162.992 179.013L162.968 179.022L162.944 179.031L162.92 179.04L162.895 179.049L162.871 179.057L162.846 179.066L162.821 179.075L162.796 179.084L162.771 179.094L162.746 179.103L162.721 179.112L162.695 179.121L162.67 179.131L162.644 179.14L162.618 179.149L162.592 179.159L162.566 179.168L162.54 179.178L162.513 179.188L162.487 179.197L162.46 179.207L162.433 179.217L162.406 179.227L162.379 179.236L162.352 179.246L162.324 179.256L162.297 179.266L162.269 179.277L162.241 179.287L162.213 179.297L162.185 179.307L162.156 179.317L162.128 179.328L162.099 179.338L162.071 179.349L162.042 179.359L162.013 179.37L161.983 179.38L161.954 179.391L161.925 179.402L161.895 179.413L161.865 179.423L161.835 179.434L161.805 179.445L161.775 179.456L161.745 179.467L161.714 179.478L161.684 179.49L161.653 179.501L161.622 179.512L161.591 179.523L161.559 179.535L161.528 179.546L161.497 179.558L161.465 179.569L161.433 179.581L161.401 179.592L161.369 179.604L161.337 179.616L161.304 179.628L161.272 179.64L161.239 179.651L161.206 179.663L161.173 179.675L161.14 179.688L161.106 179.7L161.073 179.712L161.039 179.724L161.005 179.736L160.971 179.749L160.937 179.761L160.903 179.774L160.868 179.786L160.834 179.799L160.799 179.811L160.764 179.824L160.729 179.837L160.694 179.85L160.659 179.863L160.623 179.875L160.587 179.888L160.552 179.902L160.516 179.915L160.48 179.928L160.443 179.941L160.407 179.954L160.37 179.968L160.333 179.981L160.297 179.994L160.259 180.008L160.222 180.021L160.185 180.035L160.147 180.049L160.11 180.062L160.072 180.076L160.034 180.09L159.995 180.104L159.957 180.118L159.919 180.132L159.88 180.146L159.841 180.16L159.802 180.174L159.763 180.189L159.724 180.203L159.684 180.217L159.645 180.232L159.605 180.246L159.565 180.261L159.525 180.275L159.485 180.29L159.444 180.305L159.403 180.319L159.363 180.334L159.322 180.349L159.281 180.364L159.239 180.379L159.198 180.394L159.156 180.409L159.115 180.425L159.073 180.44L159.031 180.455L158.989 180.47L158.946 180.486L158.904 180.501L158.861 180.517L158.818 180.533L158.775 180.548L158.732 180.564L158.688 180.58L158.645 180.596L158.601 180.611L158.557 180.627L158.513 180.644L158.469 180.66L158.424 180.676L158.38 180.692L158.335 180.708L158.29 180.725L158.245 180.741L158.2 180.757L158.155 180.774L158.109 180.791L158.063 180.807L158.017 180.824L157.971 180.841L157.925 180.858L157.879 180.874L157.832 180.891L157.785 180.908L157.738 180.925L157.691 180.943L157.644 180.96L157.597 180.977L157.549 180.994L157.501 181.012L157.453 181.029L157.405 181.047L157.357 181.064L157.308 181.082L157.26 181.1L157.211 181.118L157.162 181.135L157.113 181.153L157.063 181.171L157.014 181.189L156.964 181.207L156.914 181.225L156.864 181.244L156.814 181.262L156.763 181.28L156.713 181.299L156.662 181.317L156.611 181.336L156.56 181.354L156.509 181.373L156.457 181.392L156.406 181.41L156.354 181.429L156.302 181.448L156.25 181.467L156.198 181.486L156.145 181.505L156.092 181.525L156.039 181.544L155.986 181.563L155.933 181.583L155.88 181.602L155.826 181.621L155.772 181.641L155.718 181.661L155.664 181.68L155.61 181.7L155.556 181.72L155.501 181.74L155.446 181.76L155.391 181.78L155.336 181.8L155.28 181.82L155.225 181.84L155.169 181.861L155.113 181.881L155.057 181.901L155.001 181.922L154.944 181.942L154.888 181.963L154.831 181.984L154.774 182.005L154.716 182.025L154.659 182.046L154.601 182.067L154.544 182.088L154.486 182.109L154.428 182.13L154.369 182.152L154.311 182.173L154.252 182.194L154.193 182.216L154.134 182.237L154.075 182.259L154.015 182.281L153.956 182.302L153.896 182.324L153.836 182.346L153.776 182.368L153.715 182.39L153.655 182.412L153.594 182.434L153.533 182.456L153.472 182.478L153.411 182.501L153.349 182.523L153.287 182.545L153.226 182.568L153.164 182.591L153.101 182.613L153.039 182.636L152.976 182.659L152.913 182.682L152.85 182.705L152.787 182.728L152.724 182.751L152.66 182.774L152.596 182.797L152.532 182.82L152.468 182.844L152.404 182.867L152.339 182.891L152.274 182.914L152.209 182.938L152.144 182.962L152.079 182.985L152.014 183.009L151.948 183.033L151.882 183.057L151.816 183.081L151.749 183.105L151.683 183.129L151.616 183.154L151.549 183.178L151.482 183.202L151.415 183.227L151.348 183.252L151.28 183.276L151.212 183.301L151.144 183.326L151.076 183.35L151.007 183.375L150.939 183.4L150.87 183.425L150.801 183.451L150.731 183.476L150.662 183.501L150.592 183.526L150.523 183.552L150.453 183.577L150.382 183.603L150.312 183.629L150.241 183.654L150.17 183.68L150.099 183.706L150.028 183.732L149.957 183.758L149.885 183.784L149.813 183.81L149.741 183.836L149.669 183.863L149.596 183.889L149.524 183.915L149.451 183.942L149.378 183.968L149.305 183.995L149.231 184.022L149.158 184.049L149.084 184.075L149.01 184.102L148.935 184.129L148.861 184.157L148.786 184.184L148.711 184.211L148.636 184.238L148.561 184.266L148.486 184.293L148.41 184.321L148.334 184.348L148.258 184.376L148.182 184.404L148.105 184.432L148.028 184.46L147.951 184.488L147.874 184.516L147.797 184.544L147.719 184.572L147.642 184.6L147.564 184.629L147.486 184.657L147.407 184.686L147.329 184.714L147.25 184.743L147.171 184.772L147.092 184.801L147.012 184.829L146.933 184.858L146.853 184.888L146.773 184.917L146.692 184.946L146.612 184.975L146.531 185.004L146.45 185.034L146.369 185.063L146.288 185.093L146.207 185.123L146.125 185.152L146.043 185.182L145.961 185.212L145.878 185.242L145.796 185.272L145.713 185.302L145.63 185.333L145.547 185.363L145.463 185.393L145.38 185.424L145.296 185.454L145.212 185.485L145.128 185.515L145.043 185.546L144.958 185.577L144.873 185.608L144.788 185.639L144.703 185.67L144.617 185.701L144.532 185.732Z" fill="white"/>
<path d="M203.259 152.651L201.716 150.684L201.716 150.684L203.259 152.651ZM201.341 169.312L199.695 171.193L199.695 171.193L201.341 169.312ZM220.52 164.992L218.821 163.158L218.821 163.158L220.52 164.992ZM245.739 86.6538C236.719 117.041 217.557 138.262 201.716 150.684L204.801 154.619C221.22 141.743 241.142 119.714 250.533 88.0766L245.739 86.6538ZM201.716 150.684C198.86 152.924 196.171 156.029 195.309 159.71C194.387 163.648 195.682 167.681 199.695 171.193L202.988 167.431C200.13 164.93 199.744 162.703 200.178 160.85C200.672 158.738 202.377 156.519 204.801 154.619L201.716 150.684ZM199.695 171.193C204.132 175.076 209.27 174.477 213.269 172.823C217.223 171.189 220.562 168.362 222.22 166.825L218.821 163.158C217.296 164.572 214.481 166.912 211.359 168.203C208.282 169.475 205.422 169.561 202.988 167.431L199.695 171.193ZM222.22 166.825C229.91 159.696 245.379 141.724 250.969 133.158L246.782 130.425C241.441 138.608 226.249 156.272 218.821 163.158L222.22 166.825Z" fill="white"/>
<path d="M245.485 77.1565C264.191 128.553 237.887 185.275 186.785 203.875C135.683 222.475 79.0718 195.931 60.3651 144.534C41.6585 93.1383 67.9628 36.4155 119.065 17.8159C170.167 -0.783771 226.778 25.7604 245.485 77.1565Z" stroke="white" stroke-width="8"/>
</svg>
