<svg width="971" height="337" viewBox="0 0 971 337" fill="none" xmlns="http://www.w3.org/2000/svg">
<path fill-rule="evenodd" clip-rule="evenodd" d="M144.342 231.194C134.646 228.543 125.379 224.48 116.855 219.154L85.1015 287.249C81.6005 294.758 84.8488 303.682 92.3569 307.183C99.865 310.684 108.79 307.436 112.291 299.928L144.342 231.194Z" fill="black"/>
<path d="M165.542 131.676C144.461 147.437 98.1269 157.455 77.5947 160.494C76.1126 156.422 72.8914 145.817 71.8633 135.976C70.9959 127.672 78.2598 97.9975 78.2598 97.9975C78.2598 97.9975 91.5433 92.0986 101.41 88.5073C108.458 85.9421 102.951 98.5883 117.516 93.287C130.206 88.1453 156.684 79.5629 182.345 34.5734C194.878 30.8643 223.314 48.9125 228.571 53.3984C210.437 98.1135 192.082 111.835 165.945 131.375L165.542 131.676Z" fill="#FFEC3F"/>
<path d="M118.364 72.2268C101.791 76.9819 101.324 85.3462 103.162 88.934L107.905 94.6567L115.039 95.2527C115.964 94.3838 122.317 90.6883 140.324 82.8571C158.332 75.0258 175.3 46.8925 181.533 33.8048L157.868 36.0331C151.605 46.1163 134.937 67.4717 118.364 72.2268Z" fill="#2E9BFF"/>
<path fill-rule="evenodd" clip-rule="evenodd" d="M159.32 137.274C128.076 154.553 94.5919 162.013 73.2076 163.587L72.8405 158.6C93.6036 157.072 126.37 149.783 156.901 132.898C187.405 116.029 215.493 89.6914 227.372 50.1163L232.161 51.5537C219.799 92.7397 190.59 119.98 159.32 137.274Z" fill="black"/>
<path fill-rule="evenodd" clip-rule="evenodd" d="M136.91 56.7645C135.064 51.8229 130.825 44.9684 122.85 41.5233L120.867 46.1134C128.096 49.2358 131.583 56.0277 132.697 59.9201C132.442 60.1034 132.188 60.2856 131.933 60.4668C121.314 68.0199 110.989 73.315 107.515 74.5795C103.593 76.007 101.626 78.9807 100.812 81.9282C100.297 83.7946 100.225 85.6852 100.367 87.2905L74.5857 96.6743L76.2958 101.373L102.037 92.0036C102.809 93.1232 103.854 94.2973 105.174 95.2914C107.419 96.9824 110.508 98.1767 114.306 97.5962C116.548 97.2535 120.527 95.9465 125.49 93.6251C130.513 91.2756 136.697 87.8157 143.369 83.0485C156.714 73.5126 172.053 58.7142 183.939 37.058L179.555 34.6524C168.086 55.55 153.297 69.8087 140.462 78.9803C134.043 83.5668 128.124 86.8732 123.371 89.0961C118.559 91.347 115.089 92.4184 113.551 92.6536C111.3 92.9975 109.54 92.3208 108.182 91.2974C106.861 90.3026 105.965 89.0042 105.538 88.1198C105.266 86.8808 105.152 84.9944 105.632 83.2589C106.111 81.5234 107.133 80.0393 109.225 79.2779C113.268 77.8062 124 72.2448 134.831 64.5413C145.609 56.8758 157.02 46.7207 161.858 35.8996L157.294 33.8587C153.706 41.8829 145.724 49.8973 136.91 56.7645Z" fill="black"/>
<path d="M130.72 107.636C119.889 114.133 86.6825 122.601 71.4332 126.022L74.3006 144.134C81.3915 143.149 100.853 139.897 121.971 134.765C143.089 129.632 171.316 107.582 182.79 97.1977C190.42 88.9225 205.85 70.5008 206.531 63.0164C207.213 55.5321 202.086 52.7512 199.437 52.2963C196.817 50.9444 189.561 52.06 181.5 67.3383C171.424 86.4362 144.259 99.5159 130.72 107.636Z" fill="#2E9BFF"/>
<path fill-rule="evenodd" clip-rule="evenodd" d="M198.252 49.6475C199.352 49.7855 200.501 50.0885 201.691 50.5907C204.26 51.6748 206.137 53.1752 207.399 54.9808C208.657 56.7807 209.202 58.7393 209.339 60.5897C209.605 64.2006 208.331 67.5815 207.517 69.3277C205.799 73.0121 169.006 139.712 71.0351 147.354L70.6463 142.369C166.183 134.917 201.715 69.9386 202.986 67.2146C203.665 65.7564 204.526 63.3058 204.352 60.9576C204.269 59.8285 203.951 58.7758 203.301 57.845C202.654 56.9199 201.578 55.9702 199.747 55.1973C197.074 54.0695 194.992 54.5771 193.347 55.6321C191.581 56.7644 190.299 58.5678 189.701 59.8496L189.647 59.966L189.581 60.0763C175.079 84.3199 152.029 100.667 129.29 111.259C106.548 121.853 83.9079 126.789 69.9122 128.085L69.4511 123.106C82.9079 121.86 104.986 117.065 127.179 106.727C149.341 96.4039 171.409 80.6529 185.228 57.613C186.144 55.7025 187.963 53.1449 190.647 51.4234C191.301 51.0039 192.005 50.6364 192.753 50.3411L197.146 37.1126L201.891 38.6882L198.252 49.6475Z" fill="black"/>
<path fill-rule="evenodd" clip-rule="evenodd" d="M107.743 174.485L80.6609 179.021L79.8349 174.089L106.888 169.558C109.162 169.124 112.857 168.837 116.201 170.343C117.931 171.122 119.55 172.375 120.77 174.272C121.98 176.155 122.714 178.54 122.899 181.469C123.102 184.681 122.241 187.449 120.351 189.554C118.503 191.612 115.897 192.784 113.047 193.314C110.717 193.747 106.855 194.588 102.893 195.45L102.816 195.467C98.865 196.326 94.8256 197.205 92.2872 197.677L91.3727 192.762C93.8178 192.307 97.7661 191.449 101.753 190.581L101.917 190.545C105.812 189.698 109.727 188.846 112.132 188.398C114.266 188.001 115.734 187.211 116.631 186.213C117.486 185.261 118.041 183.878 117.909 181.784C117.766 179.512 117.219 177.996 116.564 176.977C115.918 175.972 115.086 175.324 114.148 174.902C112.171 174.012 109.675 174.113 107.803 174.474L107.773 174.48L107.743 174.485Z" fill="black"/>
<path d="M182.932 142.906C180.565 144.171 165.648 152.921 158.159 156.711C155.298 158.107 150.318 162.651 153.293 169.656C156.269 176.661 164.302 175.049 167.947 173.368L193.061 160.503C195.766 159.163 200.966 154.444 198.226 146.917C195.148 138.46 186.05 141.239 182.932 142.906Z" fill="#2E9BFF"/>
<path d="M158.159 156.711L159.256 158.958L159.272 158.95L159.288 158.942L158.159 156.711ZM182.932 142.906L181.753 140.701L181.753 140.701L182.932 142.906ZM193.061 160.503L191.952 158.262L191.937 158.27L191.921 158.278L193.061 160.503ZM167.947 173.368L168.994 175.638L169.041 175.617L169.087 175.593L167.947 173.368ZM153.293 169.656L155.595 168.679L155.595 168.679L153.293 169.656ZM159.288 158.942C166.722 155.18 182.016 146.23 184.11 145.111L181.753 140.701C179.115 142.112 164.574 150.663 157.031 154.48L159.288 158.942ZM184.11 145.111C185.415 144.413 188.013 143.488 190.468 143.612C191.653 143.671 192.705 143.97 193.575 144.559C194.424 145.133 195.266 146.094 195.877 147.772L200.575 146.062C199.647 143.511 198.197 141.648 196.377 140.417C194.578 139.2 192.583 138.712 190.72 138.618C187.077 138.434 183.567 139.732 181.753 140.701L184.11 145.111ZM195.877 147.772C196.982 150.808 196.466 153.109 195.51 154.798C194.495 156.59 192.924 157.781 191.952 158.262L194.17 162.743C195.904 161.885 198.284 160.047 199.861 157.262C201.496 154.374 202.21 150.552 200.575 146.062L195.877 147.772ZM191.921 158.278L166.807 171.143L169.087 175.593L194.201 162.728L191.921 158.278ZM166.9 171.098C165.346 171.815 162.874 172.491 160.6 172.28C158.482 172.084 156.651 171.166 155.595 168.679L150.992 170.633C152.911 175.15 156.585 176.93 160.139 177.259C163.536 177.573 166.903 176.603 168.994 175.638L166.9 171.098ZM155.595 168.679C154.424 165.922 154.849 163.848 155.716 162.307C156.651 160.647 158.185 159.48 159.256 158.958L157.063 154.464C155.272 155.338 152.886 157.141 151.359 159.854C149.765 162.685 149.188 166.385 150.992 170.633L155.595 168.679Z" fill="black"/>
<path d="M209.33 136.49L204.842 128.546L207.531 122.778L221.496 107.054L232.126 85.094L241.176 63.1771L253.911 83.5498L234.827 120.293L219.796 137.47L209.33 136.49Z" fill="#2E9BFF"/>
<path fill-rule="evenodd" clip-rule="evenodd" d="M227.304 89.4355C232.222 78.9154 235.59 68.7177 237.175 62.594L242.015 63.8466C240.357 70.2544 236.887 80.7428 231.833 91.5532C226.795 102.331 220.084 113.641 211.865 121.508L211.792 121.578L211.713 121.642C210.176 122.891 208.369 125.047 207.715 127.365C207.402 128.477 207.365 129.579 207.692 130.66C208.019 131.738 208.763 132.978 210.304 134.284C211.789 135.541 213.152 136.024 214.359 136.113C215.593 136.204 216.862 135.896 218.14 135.257C220.762 133.945 223.045 131.421 224.313 129.451L224.377 129.352L224.45 129.259C231.367 120.459 245.754 97.4175 251.511 81.1358L256.225 82.8026C250.256 99.6859 235.623 123.104 228.452 132.258C226.873 134.679 224.013 137.909 220.377 139.728C218.5 140.667 216.33 141.272 213.991 141.099C211.625 140.925 209.28 139.968 207.073 138.099C204.923 136.279 203.557 134.257 202.907 132.109C202.257 129.964 202.377 127.876 202.903 126.008C203.915 122.418 206.467 119.486 208.477 117.83C216.012 110.589 222.385 99.9563 227.304 89.4355Z" fill="black"/>
<path fill-rule="evenodd" clip-rule="evenodd" d="M162.532 206.732C147.603 212.166 125.745 215.81 116.714 216.958L116.083 211.998C125.021 210.862 146.431 207.272 160.821 202.034L160.907 202.003L160.993 201.972L161.078 201.94L161.163 201.909L161.248 201.879L161.333 201.848L161.417 201.817L161.502 201.786L161.586 201.756L161.67 201.725L161.753 201.695L161.837 201.664L161.92 201.634L162.003 201.604L162.086 201.574L162.168 201.544L162.251 201.514L162.333 201.484L162.415 201.454L162.496 201.424L162.578 201.395L162.659 201.365L162.74 201.335L162.821 201.306L162.902 201.277L162.982 201.247L163.063 201.218L163.143 201.189L163.223 201.16L163.302 201.131L163.382 201.102L163.461 201.073L163.54 201.045L163.619 201.016L163.697 200.987L163.775 200.959L163.854 200.93L163.932 200.902L164.009 200.874L164.087 200.845L164.164 200.817L164.241 200.789L164.318 200.761L164.395 200.733L164.472 200.705L164.548 200.678L164.624 200.65L164.7 200.622L164.776 200.595L164.851 200.567L164.926 200.54L165.001 200.513L165.076 200.485L165.151 200.458L165.225 200.431L165.3 200.404L165.374 200.377L165.448 200.35L165.521 200.323L165.595 200.297L165.668 200.27L165.741 200.243L165.814 200.217L165.886 200.19L165.959 200.164L166.031 200.138L166.103 200.112L166.175 200.085L166.247 200.059L166.318 200.033L166.389 200.007L166.46 199.982L166.531 199.956L166.602 199.93L166.672 199.904L166.742 199.879L166.812 199.853L166.882 199.828L166.952 199.803L167.021 199.777L167.091 199.752L167.16 199.727L167.229 199.702L167.297 199.677L167.366 199.652L167.434 199.627L167.502 199.602L167.57 199.578L167.637 199.553L167.705 199.529L167.772 199.504L167.839 199.48L167.906 199.455L167.973 199.431L168.039 199.407L168.106 199.383L168.172 199.359L168.238 199.335L168.303 199.311L168.369 199.287L168.434 199.263L168.499 199.239L168.564 199.216L168.629 199.192L168.694 199.169L168.758 199.145L168.822 199.122L168.886 199.099L168.95 199.075L169.014 199.052L169.077 199.029L169.14 199.006L169.203 198.983L169.266 198.96L169.329 198.938L169.391 198.915L169.453 198.892L169.515 198.87L169.577 198.847L169.639 198.825L169.701 198.802L169.762 198.78L169.823 198.758L169.884 198.735L169.945 198.713L170.005 198.691L170.066 198.669L170.126 198.647L170.186 198.626L170.246 198.604L170.305 198.582L170.365 198.56L170.424 198.539L170.483 198.517L170.542 198.496L170.601 198.475L170.659 198.453L170.717 198.432L170.776 198.411L170.834 198.39L170.891 198.369L170.949 198.348L171.006 198.327L171.064 198.306L171.121 198.285L171.177 198.265L171.234 198.244L171.291 198.223L171.347 198.203L171.403 198.183L171.459 198.162L171.515 198.142L171.57 198.122L171.626 198.101L171.681 198.081L171.736 198.061L171.791 198.041L171.845 198.022L171.9 198.002L171.954 197.982L172.008 197.962L172.062 197.943L172.116 197.923L172.17 197.903L172.223 197.884L172.276 197.865L172.329 197.845L172.382 197.826L172.435 197.807L172.487 197.788L172.54 197.769L172.592 197.75L172.644 197.731L172.696 197.712L172.747 197.693L172.799 197.675L172.85 197.656L172.901 197.637L172.952 197.619L173.003 197.6L173.053 197.582L173.104 197.564L173.154 197.545L173.204 197.527L173.254 197.509L173.304 197.491L173.353 197.473L173.402 197.455L173.452 197.437L173.501 197.419L173.549 197.401L173.598 197.384L173.647 197.366L173.695 197.348L173.743 197.331L173.791 197.313L173.839 197.296L173.886 197.279L173.934 197.261L173.981 197.244L174.028 197.227L174.075 197.21L174.122 197.193L174.169 197.176L174.215 197.159L174.261 197.142L174.307 197.125L174.353 197.109L174.399 197.092L174.444 197.076L174.49 197.059L174.535 197.043L174.58 197.026L174.625 197.01L174.67 196.994L174.714 196.977L174.759 196.961L174.803 196.945L174.847 196.929L174.891 196.913L174.935 196.897L174.978 196.881L175.022 196.865L175.065 196.85L175.108 196.834L175.151 196.818L175.193 196.803L175.236 196.787L175.278 196.772L175.321 196.757L175.363 196.741L175.405 196.726L175.446 196.711L175.488 196.696L175.529 196.681L175.571 196.666L175.612 196.651L175.653 196.636L175.693 196.621L175.734 196.606L175.774 196.591L175.815 196.577L175.855 196.562L175.895 196.548L175.935 196.533L175.974 196.519L176.014 196.504L176.053 196.49L176.092 196.476L176.131 196.462L176.17 196.448L176.209 196.433L176.247 196.419L176.285 196.405L176.324 196.392L176.362 196.378L176.399 196.364L176.437 196.35L176.475 196.337L176.512 196.323L176.549 196.309L176.586 196.296L176.623 196.282L176.66 196.269L176.697 196.256L176.733 196.243L176.769 196.229L176.806 196.216L176.842 196.203L176.877 196.19L176.913 196.177L176.949 196.164L176.984 196.151L177.019 196.138L177.054 196.126L177.089 196.113L177.124 196.1L177.158 196.088L177.193 196.075L177.227 196.063L177.261 196.05L177.295 196.038L177.329 196.026L177.363 196.013L177.396 196.001L177.429 195.989L177.463 195.977L177.496 195.965L177.529 195.953L177.561 195.941L177.594 195.929L177.626 195.917L177.659 195.906L177.691 195.894L177.723 195.882L177.755 195.871L177.786 195.859L177.818 195.848L177.849 195.836L177.881 195.825L177.912 195.814L177.943 195.802L177.973 195.791L178.004 195.78L178.035 195.769L178.065 195.758L178.095 195.747L178.125 195.736L178.155 195.725L178.185 195.714L178.215 195.703L178.244 195.693L178.273 195.682L178.303 195.671L178.332 195.661L178.36 195.65L178.389 195.64L178.418 195.629L178.446 195.619L178.475 195.609L178.503 195.598L178.531 195.588L178.559 195.578L178.586 195.568L178.614 195.558L178.641 195.548L178.669 195.538L178.696 195.528L178.723 195.518L178.75 195.509L178.777 195.499L178.803 195.489L178.83 195.479L178.856 195.47L178.882 195.46L178.908 195.451L178.934 195.441L178.96 195.432L178.985 195.423L179.011 195.414L179.036 195.404L179.061 195.395L179.086 195.386L179.111 195.377L179.136 195.368L179.161 195.359L179.185 195.35L179.209 195.341L179.234 195.332L179.258 195.324L179.282 195.315L179.305 195.306L179.329 195.298L179.353 195.289L179.376 195.281L179.399 195.272L179.422 195.264L179.445 195.255L179.468 195.247L179.491 195.239L179.513 195.231L179.536 195.222L179.558 195.214L179.58 195.206L179.602 195.198L179.624 195.19L179.646 195.182L179.668 195.174L179.689 195.167L179.71 195.159L179.732 195.151L179.753 195.143L179.774 195.136L179.795 195.128L179.815 195.121L179.836 195.113L179.856 195.106L179.877 195.098L179.897 195.091L179.917 195.084L179.937 195.077L179.956 195.069L179.976 195.062L179.996 195.055L180.015 195.048L180.034 195.041L180.053 195.034L180.072 195.027L180.091 195.02L180.11 195.013L180.128 195.007L180.147 195L180.165 194.993L180.184 194.987L180.202 194.98L180.22 194.974L180.237 194.967L180.255 194.961L180.273 194.954L180.29 194.948L180.307 194.942L180.325 194.935L180.342 194.929L180.359 194.923L180.375 194.917L180.392 194.911L180.409 194.905L180.425 194.899L180.441 194.893L180.458 194.887L180.474 194.881L180.49 194.875L180.506 194.869L180.521 194.864L180.537 194.858L180.552 194.852L180.568 194.847L180.583 194.841L180.598 194.836L180.613 194.83L180.628 194.825L180.642 194.82L180.657 194.814L180.671 194.809L180.686 194.804L180.7 194.799L180.714 194.794L180.728 194.788L180.742 194.783L180.756 194.778L180.769 194.773L180.783 194.769L180.796 194.764L180.809 194.759L180.823 194.754L180.836 194.749L180.849 194.745L180.861 194.74L180.874 194.735L180.887 194.731L180.899 194.726L180.911 194.722L180.924 194.717L180.936 194.713L180.948 194.709L180.959 194.704L180.971 194.7L180.983 194.696L180.994 194.692L181.006 194.687L181.017 194.683L181.028 194.679L181.039 194.675L181.05 194.671L181.061 194.667L181.072 194.663L181.082 194.66L181.093 194.656L181.103 194.652L181.113 194.648L181.123 194.645L181.133 194.641L181.143 194.637L181.153 194.634L181.163 194.63L181.172 194.627L181.182 194.623L181.191 194.62L181.2 194.617L181.209 194.613L181.218 194.61L181.227 194.607L181.236 194.604L181.245 194.6L181.253 194.597L181.262 194.594L181.27 194.591L181.278 194.588L181.286 194.585L181.294 194.582L181.302 194.579L181.31 194.577L181.318 194.574L181.325 194.571L181.333 194.568L181.34 194.566L181.348 194.563L181.355 194.56L181.362 194.558L181.369 194.555L181.376 194.553L181.382 194.55L181.389 194.548L181.395 194.546L181.402 194.543L181.408 194.541L181.414 194.539L181.42 194.537L181.426 194.534L181.432 194.532L181.438 194.53L181.444 194.528L181.449 194.526L181.455 194.524L181.46 194.522L181.465 194.52L181.47 194.518L181.475 194.516L181.48 194.515L181.485 194.513L181.49 194.511L181.495 194.509C183.413 193.811 186.449 193.305 189.493 194.085C192.693 194.905 195.748 197.122 197.345 201.511C198.939 205.89 198.054 209.598 196.215 212.354C194.452 214.995 191.876 216.691 189.99 217.486L189.933 217.511L189.874 217.532L169.201 225.056L169.17 225.068L169.139 225.078C168.087 225.43 166.938 225.828 165.712 226.254C160.128 228.191 152.954 230.679 146.158 231.802L145.343 226.869C151.671 225.823 158.325 223.518 163.911 221.584C165.175 221.146 166.384 220.728 167.522 220.347L188.101 212.857C189.288 212.344 190.965 211.212 192.056 209.578C193.086 208.035 193.652 205.983 192.647 203.221C191.645 200.467 189.942 199.361 188.252 198.928C186.406 198.455 184.418 198.766 183.205 199.208L183.2 199.21L183.195 199.211L183.191 199.213L183.186 199.215L183.181 199.217L183.175 199.219L183.17 199.221L183.165 199.222L183.159 199.224L183.154 199.227L183.148 199.229L183.142 199.231L183.136 199.233L183.13 199.235L183.124 199.237L183.118 199.239L183.112 199.242L183.105 199.244L183.099 199.246L183.092 199.249L183.086 199.251L183.079 199.254L183.072 199.256L183.065 199.259L183.058 199.261L183.05 199.264L183.043 199.267L183.036 199.27L183.028 199.272L183.02 199.275L183.012 199.278L183.005 199.281L182.997 199.284L182.988 199.287L182.98 199.29L182.972 199.293L182.963 199.296L182.955 199.299L182.946 199.302L182.937 199.305L182.929 199.308L182.92 199.312L182.91 199.315L182.901 199.318L182.892 199.322L182.882 199.325L182.873 199.329L182.863 199.332L182.853 199.336L182.843 199.339L182.833 199.343L182.823 199.347L182.813 199.351L182.803 199.354L182.792 199.358L182.782 199.362L182.771 199.366L182.76 199.37L182.749 199.374L182.738 199.378L182.727 199.382L182.716 199.386L182.704 199.39L182.693 199.394L182.681 199.398L182.67 199.403L182.658 199.407L182.646 199.411L182.634 199.416L182.621 199.42L182.609 199.425L182.597 199.429L182.584 199.434L182.571 199.438L182.559 199.443L182.546 199.448L182.533 199.453L182.52 199.457L182.506 199.462L182.493 199.467L182.479 199.472L182.466 199.477L182.452 199.482L182.438 199.487L182.424 199.492L182.41 199.497L182.396 199.502L182.382 199.508L182.367 199.513L182.352 199.518L182.338 199.524L182.323 199.529L182.308 199.534L182.293 199.54L182.278 199.545L182.262 199.551L182.247 199.557L182.231 199.562L182.216 199.568L182.2 199.574L182.184 199.58L182.168 199.585L182.152 199.591L182.135 199.597L182.119 199.603L182.102 199.609L182.086 199.615L182.069 199.621L182.052 199.628L182.035 199.634L182.018 199.64L182 199.646L181.983 199.653L181.965 199.659L181.947 199.666L181.93 199.672L181.912 199.679L181.894 199.685L181.875 199.692L181.857 199.698L181.839 199.705L181.82 199.712L181.801 199.719L181.782 199.726L181.763 199.733L181.744 199.74L181.725 199.747L181.706 199.754L181.686 199.761L181.667 199.768L181.647 199.775L181.627 199.782L181.607 199.79L181.587 199.797L181.566 199.804L181.546 199.812L181.525 199.819L181.505 199.827L181.484 199.834L181.463 199.842L181.442 199.85L181.421 199.857L181.399 199.865L181.378 199.873L181.356 199.881L181.334 199.889L181.312 199.897L181.29 199.905L181.268 199.913L181.246 199.921L181.224 199.929L181.201 199.937L181.178 199.946L181.155 199.954L181.132 199.962L181.109 199.971L181.086 199.979L181.063 199.988L181.039 199.996L181.016 200.005L180.992 200.013L180.968 200.022L180.944 200.031L180.92 200.04L180.895 200.049L180.871 200.057L180.846 200.066L180.821 200.075L180.796 200.085L180.771 200.094L180.746 200.103L180.721 200.112L180.695 200.121L180.67 200.131L180.644 200.14L180.618 200.149L180.592 200.159L180.566 200.168L180.54 200.178L180.513 200.188L180.487 200.197L180.46 200.207L180.433 200.217L180.406 200.227L180.379 200.236L180.352 200.246L180.324 200.256L180.297 200.266L180.269 200.277L180.241 200.287L180.213 200.297L180.185 200.307L180.156 200.317L180.128 200.328L180.099 200.338L180.071 200.349L180.042 200.359L180.013 200.37L179.983 200.38L179.954 200.391L179.925 200.402L179.895 200.413L179.865 200.423L179.835 200.434L179.805 200.445L179.775 200.456L179.745 200.467L179.714 200.478L179.684 200.49L179.653 200.501L179.622 200.512L179.591 200.523L179.559 200.535L179.528 200.546L179.497 200.558L179.465 200.569L179.433 200.581L179.401 200.592L179.369 200.604L179.337 200.616L179.304 200.628L179.272 200.64L179.239 200.651L179.206 200.663L179.173 200.675L179.14 200.688L179.106 200.7L179.073 200.712L179.039 200.724L179.005 200.736L178.971 200.749L178.937 200.761L178.903 200.774L178.868 200.786L178.834 200.799L178.799 200.811L178.764 200.824L178.729 200.837L178.694 200.85L178.659 200.863L178.623 200.876L178.587 200.888L178.552 200.902L178.516 200.915L178.48 200.928L178.443 200.941L178.407 200.954L178.37 200.968L178.333 200.981L178.297 200.994L178.259 201.008L178.222 201.021L178.185 201.035L178.147 201.049L178.11 201.062L178.072 201.076L178.034 201.09L177.995 201.104L177.957 201.118L177.919 201.132L177.88 201.146L177.841 201.16L177.802 201.174L177.763 201.189L177.724 201.203L177.684 201.217L177.645 201.232L177.605 201.246L177.565 201.261L177.525 201.275L177.485 201.29L177.444 201.305L177.403 201.319L177.363 201.334L177.322 201.349L177.281 201.364L177.239 201.379L177.198 201.394L177.156 201.409L177.115 201.425L177.073 201.44L177.031 201.455L176.989 201.47L176.946 201.486L176.904 201.501L176.861 201.517L176.818 201.533L176.775 201.548L176.732 201.564L176.688 201.58L176.645 201.596L176.601 201.612L176.557 201.627L176.513 201.644L176.469 201.66L176.424 201.676L176.38 201.692L176.335 201.708L176.29 201.725L176.245 201.741L176.2 201.757L176.155 201.774L176.109 201.791L176.063 201.807L176.017 201.824L175.971 201.841L175.925 201.858L175.879 201.874L175.832 201.891L175.785 201.908L175.738 201.926L175.691 201.943L175.644 201.96L175.597 201.977L175.549 201.994L175.501 202.012L175.453 202.029L175.405 202.047L175.357 202.064L175.308 202.082L175.26 202.1L175.211 202.118L175.162 202.135L175.113 202.153L175.063 202.171L175.014 202.189L174.964 202.207L174.914 202.225L174.864 202.244L174.814 202.262L174.763 202.28L174.713 202.299L174.662 202.317L174.611 202.336L174.56 202.354L174.509 202.373L174.457 202.392L174.406 202.41L174.354 202.429L174.302 202.448L174.25 202.467L174.198 202.486L174.145 202.505L174.092 202.525L174.039 202.544L173.986 202.563L173.933 202.583L173.88 202.602L173.826 202.621L173.772 202.641L173.718 202.661L173.664 202.68L173.61 202.7L173.556 202.72L173.501 202.74L173.446 202.76L173.391 202.78L173.336 202.8L173.28 202.82L173.225 202.84L173.169 202.861L173.113 202.881L173.057 202.901L173.001 202.922L172.944 202.942L172.888 202.963L172.831 202.984L172.774 203.005L172.716 203.025L172.659 203.046L172.601 203.067L172.544 203.088L172.486 203.109L172.428 203.131L172.369 203.152L172.311 203.173L172.252 203.194L172.193 203.216L172.134 203.237L172.075 203.259L172.015 203.281L171.956 203.302L171.896 203.324L171.836 203.346L171.776 203.368L171.715 203.39L171.655 203.412L171.594 203.434L171.533 203.456L171.472 203.478L171.411 203.501L171.349 203.523L171.287 203.545L171.226 203.568L171.164 203.591L171.101 203.613L171.039 203.636L170.976 203.659L170.913 203.682L170.85 203.705L170.787 203.728L170.724 203.751L170.66 203.774L170.596 203.797L170.532 203.82L170.468 203.844L170.404 203.867L170.339 203.891L170.274 203.914L170.209 203.938L170.144 203.962L170.079 203.985L170.014 204.009L169.948 204.033L169.882 204.057L169.816 204.081L169.749 204.105L169.683 204.129L169.616 204.154L169.549 204.178L169.482 204.203L169.415 204.227L169.348 204.252L169.28 204.276L169.212 204.301L169.144 204.326L169.076 204.35L169.007 204.375L168.939 204.4L168.87 204.425L168.801 204.451L168.731 204.476L168.662 204.501L168.592 204.526L168.523 204.552L168.453 204.577L168.382 204.603L168.312 204.629L168.241 204.654L168.17 204.68L168.099 204.706L168.028 204.732L167.957 204.758L167.885 204.784L167.813 204.81L167.741 204.836L167.669 204.863L167.596 204.889L167.524 204.915L167.451 204.942L167.378 204.968L167.305 204.995L167.231 205.022L167.158 205.049L167.084 205.075L167.01 205.102L166.935 205.129L166.861 205.157L166.786 205.184L166.711 205.211L166.636 205.238L166.561 205.266L166.486 205.293L166.41 205.321L166.334 205.348L166.258 205.376L166.182 205.404L166.105 205.432L166.028 205.46L165.951 205.488L165.874 205.516L165.797 205.544L165.719 205.572L165.642 205.6L165.564 205.629L165.486 205.657L165.407 205.686L165.329 205.714L165.25 205.743L165.171 205.772L165.092 205.801L165.012 205.829L164.933 205.858L164.853 205.888L164.773 205.917L164.692 205.946L164.612 205.975L164.531 206.005L164.45 206.034L164.369 206.063L164.288 206.093L164.207 206.123L164.125 206.152L164.043 206.182L163.961 206.212L163.878 206.242L163.796 206.272L163.713 206.302L163.63 206.333L163.547 206.363L163.463 206.393L163.38 206.424L163.296 206.454L163.212 206.485L163.128 206.515L163.043 206.546L162.958 206.577L162.873 206.608L162.788 206.639L162.703 206.67L162.617 206.701L162.532 206.732Z" fill="black"/>
<path d="M221.259 173.651L219.716 171.684L219.716 171.684L221.259 173.651ZM219.341 190.312L217.695 192.193L217.695 192.193L219.341 190.312ZM238.52 185.992L236.821 184.158L236.821 184.158L238.52 185.992ZM263.739 107.654C254.719 138.041 235.557 159.262 219.716 171.684L222.801 175.619C239.22 162.743 259.142 140.714 268.533 109.077L263.739 107.654ZM219.716 171.684C216.86 173.924 214.171 177.029 213.309 180.71C212.387 184.648 213.682 188.681 217.695 192.193L220.988 188.431C218.13 185.93 217.744 183.703 218.178 181.85C218.672 179.738 220.377 177.52 222.801 175.619L219.716 171.684ZM217.695 192.193C222.132 196.076 227.27 195.477 231.269 193.823C235.223 192.189 238.562 189.362 240.22 187.825L236.821 184.158C235.296 185.572 232.481 187.912 229.359 189.203C226.282 190.475 223.422 190.561 220.988 188.431L217.695 192.193ZM240.22 187.825C247.91 180.696 263.379 162.724 268.969 154.158L264.782 151.425C259.441 159.608 244.249 177.272 236.821 184.158L240.22 187.825Z" fill="black"/>
<path d="M263.485 98.1565C282.191 149.553 255.887 206.275 204.785 224.875C153.683 243.475 97.0718 216.931 78.3651 165.534C59.6585 114.138 85.9628 57.4155 137.065 38.8159C188.167 20.2162 244.778 46.7604 263.485 98.1565Z" stroke="black" stroke-width="8"/>
<path d="M411.5 274.5C394.333 274.5 379.25 270.75 366.25 263.25C353.417 255.583 343.417 245.167 336.25 232C329.083 218.667 325.5 203.667 325.5 187C325.5 174.333 327.667 162.667 332 152C336.333 141.333 342.333 132.083 350 124.25C357.833 116.417 366.917 110.333 377.25 106C387.75 101.667 399.167 99.5 411.5 99.5C430.833 99.5 446.667 103.5 459 111.5C471.333 119.333 481.417 129.917 489.25 143.25L464.75 150.5C457.083 140 448.833 132.917 440 129.25C431.333 125.417 421.833 123.5 411.5 123.5C400 123.5 389.667 126.25 380.5 131.75C371.5 137.25 364.333 144.75 359 154.25C353.667 163.75 351 174.667 351 187C351 199.167 353.667 210.083 359 219.75C364.333 229.25 371.5 236.75 380.5 242.25C389.667 247.75 400 250.5 411.5 250.5C422.5 250.5 432.5 248.083 441.5 243.25C450.667 238.25 457.917 231.5 463.25 223C468.583 214.5 471.25 204.833 471.25 194L475 208.5H410V185H493.5C494 186.667 494.333 188.583 494.5 190.75C494.833 192.917 495 195 495 197C495 207.667 492.917 217.667 488.75 227C484.583 236.333 478.667 244.583 471 251.75C463.5 258.917 454.667 264.5 444.5 268.5C434.5 272.5 423.5 274.5 411.5 274.5ZM541.385 272H516.385V150H541.385V272ZM512.635 112.5C512.635 107.667 514.051 103.75 516.885 100.75C519.885 97.5833 523.885 96 528.885 96C533.718 96 537.635 97.5833 540.635 100.75C543.635 103.75 545.135 107.667 545.135 112.5C545.135 117.167 543.635 121.083 540.635 124.25C537.635 127.25 533.718 128.75 528.885 128.75C523.885 128.75 519.885 127.25 516.885 124.25C514.051 121.083 512.635 117.167 512.635 112.5ZM618.99 274.25C608.324 274.25 599.824 271.167 593.49 265C587.324 258.667 584.24 248.917 584.24 235.75V151.5V150L588.99 122.5H609.24V236.25C609.24 240.917 610.407 244.417 612.74 246.75C615.24 249.083 618.324 250.25 621.99 250.25C624.824 250.25 627.324 250.083 629.49 249.75C631.657 249.417 633.574 249 635.24 248.5V271.75C633.074 272.417 630.657 273 627.99 273.5C625.49 274 622.49 274.25 618.99 274.25ZM565.49 173V150H635.24V173H565.49ZM713.643 274.5C701.809 274.5 691.393 271.917 682.393 266.75C673.393 261.417 666.393 254 661.393 244.5C656.393 235 653.893 223.917 653.893 211.25C653.893 198.417 656.393 187.25 661.393 177.75C666.393 168.25 673.393 160.833 682.393 155.5C691.393 150.167 701.809 147.5 713.643 147.5C725.643 147.5 736.143 150.167 745.143 155.5C754.143 160.833 761.143 168.25 766.143 177.75C771.143 187.25 773.643 198.417 773.643 211.25C773.643 212.417 773.559 213.667 773.393 215C773.393 216.167 773.309 217.25 773.143 218.25H677.643V196.75H755.143L748.143 211.25C748.143 198.583 745.309 188.167 739.643 180C733.976 171.833 725.309 167.75 713.643 167.75C703.309 167.75 695.059 171.083 688.893 177.75C682.726 184.25 679.643 192.833 679.643 203.5V216.5C679.643 227.667 682.643 236.583 688.643 243.25C694.643 249.75 702.976 253 713.643 253C723.476 253 731.059 250.917 736.393 246.75C741.726 242.583 746.393 237.417 750.393 231.25L769.143 243C763.476 253.5 756.143 261.417 747.143 266.75C738.309 271.917 727.143 274.5 713.643 274.5ZM849.385 274.5C837.551 274.5 827.135 271.917 818.135 266.75C809.135 261.417 802.135 254 797.135 244.5C792.135 235 789.635 223.917 789.635 211.25C789.635 198.417 792.135 187.25 797.135 177.75C802.135 168.25 809.135 160.833 818.135 155.5C827.135 150.167 837.551 147.5 849.385 147.5C861.385 147.5 871.885 150.167 880.885 155.5C889.885 160.833 896.885 168.25 901.885 177.75C906.885 187.25 909.385 198.417 909.385 211.25C909.385 212.417 909.301 213.667 909.135 215C909.135 216.167 909.051 217.25 908.885 218.25H813.385V196.75H890.885L883.885 211.25C883.885 198.583 881.051 188.167 875.385 180C869.718 171.833 861.051 167.75 849.385 167.75C839.051 167.75 830.801 171.083 824.635 177.75C818.468 184.25 815.385 192.833 815.385 203.5V216.5C815.385 227.667 818.385 236.583 824.385 243.25C830.385 249.75 838.718 253 849.385 253C859.218 253 866.801 250.917 872.135 246.75C877.468 242.583 882.135 237.417 886.135 231.25L904.885 243C899.218 253.5 891.885 261.417 882.885 266.75C874.051 271.917 862.885 274.5 849.385 274.5Z" fill="black"/>
</svg>
